<svg width="22" height="22" viewBox="0 0 22 22" fill="none" xmlns="http://www.w3.org/2000/svg">
<path d="M7.09996 20.221C5.71009 18.2375 4.89246 15.8243 4.89246 13.2187C4.89246 9.84432 7.62638 7.10938 10.9987 7.10938C14.3711 7.10938 17.105 9.84432 17.105 13.2187" stroke="black" stroke-width="2" stroke-linecap="round" stroke-linejoin="round"/>
<path d="M7.10008 20.221C5.71021 18.2375 4.89258 15.8243 4.89258 13.2187C4.89258 9.84432 7.6265 7.10938 10.9989 7.10938C14.3712 7.10938 17.1051 9.84432 17.1051 13.2187" stroke="black" stroke-width="2" stroke-linecap="round" stroke-linejoin="round"/>
<path d="M17.436 19.3118C17.326 19.3179 17.2181 19.3281 17.1071 19.3281C13.7347 19.3281 11.0008 16.5931 11.0008 13.2188" stroke="black" stroke-width="2" stroke-linecap="round" stroke-linejoin="round"/>
<path d="M17.4361 19.3118C17.3262 19.3179 17.2182 19.3281 17.1073 19.3281C13.7349 19.3281 11.001 16.5931 11.001 13.2188" stroke="black" stroke-width="2" stroke-linecap="round" stroke-linejoin="round"/>
<path d="M12.2694 20.9999C9.67498 19.382 7.94705 16.5024 7.94705 13.2187C7.94705 11.5315 9.31453 10.164 11.0007 10.164C12.6869 10.164 14.0543 11.5315 14.0543 13.2187C14.0543 14.9059 15.4218 16.2733 17.108 16.2733C18.7942 16.2733 20.1616 14.9059 20.1616 13.2187C20.1616 8.1571 16.0602 4.05469 11.0017 4.05469C5.94319 4.05469 1.8418 8.1571 1.8418 13.2187C1.8418 14.3469 1.96806 15.4455 2.20021 16.5045" stroke="black" stroke-width="2" stroke-linecap="round" stroke-linejoin="round"/>
<path d="M12.2694 20.9999C9.67498 19.382 7.94705 16.5024 7.94705 13.2187C7.94705 11.5315 9.31453 10.164 11.0007 10.164C12.6869 10.164 14.0543 11.5315 14.0543 13.2187C14.0543 14.9059 15.4218 16.2733 17.108 16.2733C18.7942 16.2733 20.1616 14.9059 20.1616 13.2187C20.1616 8.1571 16.0602 4.05469 11.0017 4.05469C5.94319 4.05469 1.8418 8.1571 1.8418 13.2187C1.8418 14.3469 1.96806 15.4455 2.20021 16.5045" stroke="black" stroke-width="2" stroke-linecap="round" stroke-linejoin="round"/>
<path d="M19.5257 4.86313C17.4435 2.4978 14.399 1 11.0002 1C7.60136 1 4.55687 2.4978 2.47461 4.86313" stroke="black" stroke-width="2" stroke-linecap="round" stroke-linejoin="round"/>
<path d="M19.5257 4.86313C17.4435 2.4978 14.399 1 11.0002 1C7.60136 1 4.55687 2.4978 2.47461 4.86313" stroke="black" stroke-width="2" stroke-linecap="round" stroke-linejoin="round"/>
</svg>
