<svg width="18" height="27" viewBox="0 0 18 27" fill="none" xmlns="http://www.w3.org/2000/svg">
<path d="M17.543 13.7831C17.4401 13.5499 17.2855 13.3417 17.0902 13.1735C16.8948 13.0053 16.6637 12.8814 16.4134 12.8105C16.1409 12.7333 15.8542 12.715 15.5736 12.7568C15.293 12.7986 15.0253 12.8996 14.7889 13.0526C14.7325 13.0884 14.6772 13.1262 14.6196 13.1655L14.5918 13.1844C14.4434 12.8693 14.2216 12.5921 13.9442 12.3747C13.6667 12.1574 13.3411 12.0061 12.9932 11.9325C12.6944 11.8763 12.3861 11.8915 12.0946 11.9767C11.8032 12.0619 11.5373 12.2148 11.3198 12.4219C11.0734 12.0516 10.7413 11.6727 10.1709 11.5612C9.62902 11.4556 9.20174 11.7092 8.7879 11.9543L8.76336 11.9688C8.74919 11.7623 8.73567 11.5592 8.72284 11.3594C8.69012 10.8524 8.6591 10.3743 8.6099 9.89142C8.59177 9.71271 8.57407 9.53388 8.55678 9.35496C8.47401 8.50944 8.38829 7.63504 8.2303 6.78704C8.1453 6.3292 7.93484 5.83215 7.58804 5.26743C7.38617 4.93841 7.1231 4.74151 6.8067 4.68213C6.50591 4.62563 6.16535 4.70229 5.82079 4.90312C5.6424 5.00603 5.48715 5.1429 5.36431 5.30557C5.24147 5.46823 5.15355 5.65334 5.10585 5.84984C5.03181 6.10868 4.98503 6.37421 4.96625 6.64229C4.9564 6.84363 4.94613 7.04501 4.93543 7.24643C4.88995 8.12506 4.84291 9.0337 4.84365 9.92796C4.84471 11.1001 4.87137 12.2495 4.89963 13.4665C4.91054 13.9424 4.92115 14.4224 4.93149 14.9063L4.90716 14.8856C4.83469 14.8241 4.77211 14.7709 4.70369 14.7229C3.61709 13.9586 2.46187 13.6918 1.26998 13.9302C1.01508 13.9757 0.775898 14.0826 0.574185 14.241C0.37247 14.3995 0.214607 14.6045 0.114953 14.8375C0.0153247 15.0806 -0.0203588 15.3439 0.0110916 15.6038C0.042542 15.8636 0.140163 16.1117 0.295076 16.3255C0.423297 16.4972 0.570539 16.6547 0.734179 16.795C0.82619 16.8799 0.92129 16.9678 1.00608 17.0592C1.15918 17.2248 1.32013 17.3888 1.47589 17.5477C1.87768 17.934 2.24367 18.3541 2.5696 18.8031C2.91364 19.3332 3.22645 19.882 3.50643 20.4467C3.66282 20.7475 3.82463 21.0587 3.99399 21.359L4.02267 21.41C4.42642 22.1245 4.84259 22.8634 5.29977 23.5621C5.52571 23.8889 5.80574 24.1769 6.12848 24.4144C6.78064 24.9049 7.50659 25.2943 8.28074 25.5691C9.05228 25.8588 9.87224 26.0071 10.6992 26.0063C11.6519 25.9976 12.5952 25.822 13.4839 25.4877C14.0903 25.267 14.6469 24.8825 15.211 24.4745C16.1827 23.7716 16.844 22.7363 17.2921 21.2147C17.8404 19.3719 18.0729 17.4536 17.9801 15.5371C17.9424 14.9319 17.7944 14.3379 17.543 13.7831ZM6.82102 23.4131C6.63054 23.2885 6.46442 23.1319 6.33056 22.9504C6.00086 22.4873 5.69549 22.0082 5.41557 21.5151C4.99483 20.7555 4.58484 19.9678 4.16187 19.107C3.49187 17.7441 2.65217 16.6935 1.5949 15.8951C1.58228 15.886 1.57029 15.8761 1.559 15.8654C1.52617 15.8329 1.49205 15.8007 1.45773 15.7683C1.2327 15.5558 1.02008 15.355 1.15289 15.0247C1.27975 14.7089 1.60054 14.6546 1.91302 14.6546C1.93501 14.6546 1.95712 14.6546 1.97901 14.6553C3.02364 14.6777 3.82981 15.0356 4.37529 15.7192C4.53342 15.9465 4.65353 16.1965 4.73113 16.4604C4.74862 16.5097 4.76633 16.5587 4.78426 16.6072C4.86426 16.8235 4.97222 17.1194 5.34366 17.1101C5.63128 17.1025 5.82175 16.9221 5.89612 16.5885C5.92595 16.4465 5.93902 16.3016 5.93503 16.1567C5.91378 14.9894 5.88636 13.6043 5.85161 12.1803C5.84534 11.9216 5.83251 11.6596 5.81976 11.4059C5.79851 10.9651 5.77606 10.5094 5.78785 10.063C5.82207 8.73706 5.8994 7.41497 5.96283 6.41135C5.9996 5.82853 6.10098 5.68368 6.63498 5.48533C6.96626 5.7142 7.17419 6.07633 7.27023 6.59128C7.40945 7.31807 7.50671 8.0519 7.56148 8.78931C7.63851 9.89133 7.69584 11.0138 7.7513 12.0986C7.7761 12.5831 7.8015 13.0676 7.82742 13.552C7.84081 13.7977 7.90241 14.0891 8.26206 14.1636C8.59716 14.2328 8.77672 13.9627 8.90815 13.689C8.93461 13.634 8.96066 13.5784 8.9869 13.5229C9.12009 13.2102 9.28803 12.9126 9.48774 12.6355C9.65551 12.4216 9.86862 12.3182 10.0708 12.3508C10.2821 12.3853 10.4565 12.5607 10.5489 12.8323C10.6115 13.05 10.6458 13.2743 10.6513 13.5003C10.6559 13.5691 10.6606 13.6378 10.6667 13.7059C10.6717 13.7919 10.6692 13.8781 10.6591 13.9635C10.6545 14.0168 10.6499 14.0702 10.6485 14.1234C10.641 14.3906 10.7685 14.5549 11.0171 14.5987C11.2933 14.6471 11.4871 14.5218 11.5633 14.2459C11.5739 14.2069 11.583 14.1672 11.5916 14.1275C11.6035 14.0652 11.6202 14.0039 11.6416 13.944C11.6735 13.863 11.7028 13.781 11.7328 13.699C11.8099 13.4664 11.9068 13.2404 12.0225 13.0234C12.2221 12.6749 12.4632 12.5889 12.8831 12.7183C13.3338 12.857 13.6095 13.139 13.7027 13.5564C13.7525 13.817 13.7799 14.0812 13.7848 14.3462L13.7868 14.3884C13.8064 14.8039 13.88 15.0571 14.1976 15.1212C14.5527 15.193 14.6977 14.9567 14.8256 14.7487C14.8394 14.7262 14.8534 14.7036 14.8675 14.6814C14.8994 14.6305 14.9312 14.5789 14.9631 14.5272C15.0644 14.3511 15.181 14.1836 15.3115 14.0268C15.5346 13.7757 15.7875 13.6534 16.0234 13.6821C16.2562 13.7104 16.4663 13.8849 16.615 14.1737C16.8984 14.7218 17.0498 15.3258 17.0575 15.9394C17.0773 17.3155 16.9002 18.7459 16.5002 20.4426C16.2987 21.2826 15.9272 22.0752 15.4076 22.7738C14.8423 23.5427 13.9866 24.1067 12.8643 24.4499C10.7526 25.0952 8.77608 24.7562 6.82102 23.4131Z" fill="black"/>
<path d="M3.17393 9.00082C3.65565 9.14764 3.9486 9.09394 4.0693 8.83527C4.19488 8.56626 4.03228 8.29611 3.58615 8.03093L3.48312 7.9703C3.24087 7.82855 2.99034 7.68204 2.82778 7.4809C2.2863 6.82093 1.97942 6.00764 1.95327 5.16326C1.89228 3.53295 2.87228 2.1464 4.51104 1.54495C5.54325 1.16166 6.64495 0.987566 7.74865 1.03331C8.97581 1.08639 9.8721 1.40434 10.5696 2.03393C11.0279 2.4478 12.4502 3.94536 11.5174 5.85183C11.3185 6.26221 11.0627 6.64408 10.7573 6.98675C10.5093 7.24607 10.242 7.48712 9.95743 7.70791C9.83504 7.80775 9.71303 7.90759 9.59372 8.01023C9.539 8.05741 9.48283 8.10335 9.42651 8.14908C9.29817 8.24878 9.17715 8.35713 9.0644 8.47335C8.87315 8.68028 8.84756 8.91711 8.99514 9.12342C9.04481 9.19853 9.1127 9.26059 9.1928 9.30415C9.27289 9.3477 9.3627 9.37141 9.45443 9.37319C9.51539 9.37297 9.5759 9.36287 9.63345 9.34329C9.91214 9.25181 10.1781 9.12709 10.4253 8.97195C11.1301 8.5163 11.7305 7.92374 12.1891 7.23144C13.513 5.26559 13.2368 3.03176 11.4683 1.40165C10.4192 0.434764 9.13664 0.0286601 7.04164 0H7.03729L7.03308 0.000620899C6.92938 0.0154165 6.79931 0.0316607 6.64908 0.0495603C6.23099 0.100259 5.65844 0.169788 5.09681 0.286291C3.73801 0.568339 2.65439 1.17972 1.87592 2.10346C0.198153 4.09394 0.701648 6.59834 1.94506 8.19761C2.25555 8.58684 2.6864 8.86845 3.17393 9.00082Z" fill="black"/>
<path d="M8.73392 5.5385C8.67835 5.63069 8.62112 5.72598 8.57299 5.82479C8.51131 5.92802 8.48874 6.04904 8.50917 6.1668C8.52962 6.28456 8.59175 6.39162 8.68484 6.46939C8.73275 6.51481 8.78939 6.55058 8.85153 6.57464C8.91366 6.59871 8.98004 6.61061 9.0469 6.60965C9.11376 6.60868 9.17977 6.59488 9.24114 6.56905C9.3025 6.5432 9.35804 6.50582 9.40456 6.45904C9.63807 6.25633 9.83192 6.01407 9.97663 5.74399C10.3606 4.92661 10.0704 3.9265 9.25411 3.25449C8.53515 2.63304 7.59767 2.30577 6.63702 2.34089C5.82019 2.2966 5.01505 2.54958 4.24178 3.09329C3.10663 3.89174 2.87508 5.33302 3.23367 6.28377C3.41025 6.75154 3.71183 7.00751 4.13066 7.04466C4.14373 7.0458 4.1573 7.04642 4.17122 7.04642C4.32634 7.04642 4.52746 6.97616 4.59461 6.86752C4.64667 6.78351 4.61503 6.64228 4.49189 6.40927C4.44903 6.33475 4.3987 6.26453 4.34164 6.19965C4.27168 6.12578 4.2164 6.03989 4.17864 5.94637C3.94489 5.19189 4.29842 4.25863 4.96736 3.86598C5.36085 3.62599 5.79476 3.45555 6.24913 3.36251C7.0938 3.21073 7.89594 3.44528 8.56987 4.04104C9.03981 4.45666 9.10846 4.90467 8.7859 5.45087L8.73392 5.5385Z" fill="black"/>
</svg>
