<svg width="22" height="22" viewBox="0 0 22 22" fill="none" xmlns="http://www.w3.org/2000/svg">
<path d="M14.0002 18C14.0002 19.6569 12.6571 21 11.0002 21C9.34339 21 8.00025 19.6569 8.00025 18M12.7968 5.23856C13.2322 4.78864 13.5002 4.17562 13.5002 3.5C13.5002 2.11929 12.381 1 11.0002 1C9.61954 1 8.50025 2.11929 8.50025 3.5C8.50025 4.17562 8.76825 4.78864 9.20374 5.23856M1.54707 7.32296C1.53272 5.87161 2.3152 4.51631 3.57928 3.80306M20.4534 7.32296C20.4678 5.87161 19.6853 4.51631 18.4212 3.80306M17.0002 10.2C17.0002 8.82087 16.3681 7.49823 15.2429 6.52304C14.1177 5.54786 12.5915 5 11.0002 5C9.40895 5 7.88283 5.54786 6.75761 6.52304C5.63239 7.49823 5.00025 8.82087 5.00025 10.2C5.00025 12.4818 4.43438 14.1506 3.72831 15.3447C2.92359 16.7056 2.52122 17.3861 2.53711 17.5486C2.55529 17.7346 2.58876 17.7933 2.73959 17.9036C2.87142 18 3.53376 18 4.85844 18H17.1421C18.4667 18 19.1291 18 19.2609 17.9036C19.4117 17.7933 19.4452 17.7346 19.4634 17.5486C19.4793 17.3861 19.0769 16.7056 18.2722 15.3447C17.5661 14.1506 17.0002 12.4818 17.0002 10.2Z" stroke="black" stroke-width="2" stroke-linecap="round" stroke-linejoin="round"/>
</svg>
