<svg width="23" height="22" viewBox="0 0 23 22" fill="none" xmlns="http://www.w3.org/2000/svg">
<path d="M16.7467 1.81054C17.7114 0.814061 19.3055 0.801171 20.2862 1.78192C21.2401 2.73579 21.2578 4.27676 20.3262 5.25237L17.5475 8.16213C17.3297 8.3902 17.2208 8.50424 17.1537 8.6378C17.0943 8.75603 17.059 8.88488 17.0497 9.01688C17.0393 9.16598 17.0747 9.31962 17.1457 9.62691L18.8735 17.1145C18.9463 17.4299 18.9827 17.5876 18.971 17.7401C18.9606 17.8752 18.9229 18.0067 18.8601 18.1267C18.7892 18.2623 18.6748 18.3767 18.4459 18.6056L18.0751 18.9764C17.469 19.5825 17.1659 19.8856 16.8557 19.9405C16.5849 19.9884 16.3062 19.9226 16.0854 19.7586C15.8325 19.5708 15.6969 19.1642 15.4259 18.351L13.4161 12.3217L10.0708 15.667C9.87109 15.8667 9.77125 15.9665 9.70446 16.0841C9.64529 16.1883 9.60532 16.3022 9.58645 16.4205C9.56515 16.5541 9.58075 16.6944 9.61193 16.9751L9.79564 18.6285C9.82683 18.9091 9.84242 19.0495 9.82112 19.183C9.80225 19.3013 9.76228 19.4153 9.70312 19.5194C9.63633 19.637 9.53648 19.7368 9.3368 19.9365L9.13929 20.134C8.66623 20.6071 8.4297 20.8436 8.16686 20.9121C7.93631 20.9722 7.69189 20.948 7.4776 20.8439C7.23329 20.7251 7.04774 20.4468 6.67664 19.8902L5.10832 17.5377C5.04202 17.4382 5.00887 17.3885 4.97038 17.3434C4.9362 17.3034 4.8989 17.2661 4.85884 17.2319C4.81374 17.1934 4.76401 17.1602 4.66456 17.0939L2.31208 15.5256C1.75543 15.1545 1.4771 14.969 1.35839 14.7247C1.25425 14.5104 1.23005 14.2659 1.29014 14.0354C1.35864 13.7725 1.59517 13.536 2.06823 13.063L2.26573 12.8655C2.46542 12.6658 2.56526 12.5659 2.68284 12.4991C2.787 12.44 2.90095 12.4 3.01925 12.3811C3.15278 12.3598 3.29312 12.3754 3.57379 12.4066L5.22718 12.5903C5.50785 12.6215 5.64819 12.6371 5.78172 12.6158C5.90002 12.5969 6.01397 12.557 6.11813 12.4978C6.23571 12.431 6.33555 12.3312 6.53524 12.1315L9.88056 8.78616L3.85128 6.7764C3.03806 6.50532 2.63144 6.36978 2.44365 6.11688C2.27966 5.89604 2.21389 5.6174 2.2618 5.34654C2.31666 5.03635 2.61973 4.73328 3.22588 4.12713L3.59665 3.75636C3.82554 3.52747 3.93999 3.41302 4.07558 3.34213C4.19559 3.27939 4.3271 3.24167 4.46212 3.23127C4.61467 3.21952 4.77238 3.25592 5.08779 3.32871L12.5469 5.05005C12.8569 5.12157 13.0119 5.15734 13.1615 5.1467C13.306 5.13642 13.4465 5.09489 13.5733 5.02498C13.7047 4.95256 13.8153 4.8383 14.0366 4.60976L16.7467 1.81054Z" stroke="black" stroke-width="2" stroke-linecap="round" stroke-linejoin="round"/>
</svg>
