<svg width="20" height="20" viewBox="0 0 20 20" fill="none" xmlns="http://www.w3.org/2000/svg">
<path d="M9.9979 13C6.82782 13 4.0087 14.5306 2.21389 16.906C1.8276 17.4172 1.63446 17.6728 1.64078 18.0183C1.64566 18.2852 1.81326 18.6219 2.02326 18.7867C2.29508 19 2.67177 19 3.42513 19H16.5707C17.324 19 17.7007 19 17.9725 18.7867C18.1825 18.6219 18.3501 18.2852 18.355 18.0183C18.3613 17.6728 18.1682 17.4172 17.7819 16.906C15.9871 14.5306 13.168 13 9.9979 13Z" stroke="black" stroke-width="2" stroke-linecap="round" stroke-linejoin="round"/>
<path d="M9.9979 10C12.4832 10 14.4979 7.98528 14.4979 5.5C14.4979 3.01472 12.4832 1 9.9979 1C7.51262 1 5.4979 3.01472 5.4979 5.5C5.4979 7.98528 7.51262 10 9.9979 10Z" stroke="black" stroke-width="2" stroke-linecap="round" stroke-linejoin="round"/>
</svg>
