<svg width="10" height="16" viewBox="0 0 10 16" fill="none" xmlns="http://www.w3.org/2000/svg">
<path d="M1.19531 3.76498C1.42304 3.06326 1.84053 2.43829 2.40137 1.95899C2.96221 1.47968 3.64441 1.16501 4.37305 1.0494C5.10168 0.933799 5.84862 1.02202 6.53027 1.3042C7.21193 1.58637 7.80161 2.05166 8.23535 2.64844C8.6691 3.24521 8.9295 3.95008 8.98748 4.68554C9.04547 5.42101 8.89846 6.15806 8.56358 6.81543C8.22871 7.4728 7.71916 8.02514 7.09015 8.41064C6.46113 8.79614 5.73775 9.00017 5 9.00017V9.99982M5.0498 14V14.1L4.9502 14.1002V14H5.0498Z" stroke="black" stroke-width="2" stroke-linecap="round" stroke-linejoin="round"/>
</svg>
