<svg width="20" height="22" viewBox="0 0 20 22" fill="none" xmlns="http://www.w3.org/2000/svg">
<path d="M7.397 18.3711L7.98144 19.6856C8.15518 20.0768 8.43872 20.4093 8.79767 20.6426C9.15661 20.8759 9.57555 21.0001 10.0037 21C10.4318 21.0001 10.8507 20.8759 11.2097 20.6426C11.5686 20.4093 11.8521 20.0768 12.0259 19.6856L12.6103 18.3711C12.8184 17.9047 13.1683 17.5159 13.6103 17.26C14.0551 17.0034 14.5697 16.8941 15.0803 16.9478L16.5103 17.1C16.936 17.145 17.3656 17.0656 17.747 16.8713C18.1284 16.6771 18.4453 16.3763 18.6592 16.0056C18.8734 15.635 18.9754 15.2103 18.9529 14.7829C18.9305 14.3555 18.7844 13.9438 18.5326 13.5978L17.6859 12.4344C17.3844 12.0171 17.2233 11.5148 17.2259 11C17.2258 10.4866 17.3884 9.98635 17.6903 9.57111L18.537 8.40778C18.7889 8.06175 18.9349 7.65007 18.9574 7.22267C18.9799 6.79528 18.8778 6.37054 18.6637 6C18.4498 5.62923 18.1329 5.32849 17.7515 5.13423C17.37 4.93997 16.9404 4.86053 16.5148 4.90556L15.0848 5.05778C14.5741 5.11141 14.0596 5.00212 13.6148 4.74556C13.1719 4.48825 12.8218 4.09736 12.6148 3.62889L12.0259 2.31444C11.8521 1.92317 11.5686 1.59072 11.2097 1.3574C10.8507 1.12408 10.4318 0.99993 10.0037 1C9.57555 0.99993 9.15661 1.12408 8.79767 1.3574C8.43872 1.59072 8.15518 1.92317 7.98144 2.31444L7.397 3.62889C7.18992 4.09736 6.83987 4.48825 6.397 4.74556C5.95221 5.00212 5.43766 5.11141 4.927 5.05778L3.49255 4.90556C3.06688 4.86053 2.63729 4.93997 2.25587 5.13423C1.87444 5.32849 1.55757 5.62923 1.34366 6C1.12948 6.37054 1.02744 6.79528 1.04993 7.22267C1.07241 7.65007 1.21845 8.06175 1.47033 8.40778L2.31699 9.57111C2.61894 9.98635 2.78153 10.4866 2.78144 11C2.78153 11.5134 2.61894 12.0137 2.31699 12.4289L1.47033 13.5922C1.21845 13.9382 1.07241 14.3499 1.04993 14.7773C1.02744 15.2047 1.12948 15.6295 1.34366 16C1.55778 16.3706 1.87469 16.6712 2.25606 16.8654C2.63743 17.0596 3.06691 17.1392 3.49255 17.0944L4.92255 16.9422C5.43322 16.8886 5.94777 16.9979 6.39255 17.2544C6.83708 17.511 7.18876 17.902 7.397 18.3711Z" stroke="black" stroke-width="2" stroke-linecap="round" stroke-linejoin="round"/>
<path d="M10.0019 14C11.6587 14 13.0019 12.6569 13.0019 11C13.0019 9.34315 11.6587 8 10.0019 8C8.34502 8 7.00187 9.34315 7.00187 11C7.00187 12.6569 8.34502 14 10.0019 14Z" stroke="black" stroke-width="2" stroke-linecap="round" stroke-linejoin="round"/>
</svg>
