<svg width="18" height="20" viewBox="0 0 18 20" fill="none" xmlns="http://www.w3.org/2000/svg">
<path d="M1 7H17M1 7V15.8002C1 16.9203 1 17.4801 1.21799 17.9079C1.40973 18.2842 1.71547 18.5905 2.0918 18.7822C2.5192 19 3.07899 19 4.19691 19H13.8036C14.9215 19 15.4805 19 15.9079 18.7822C16.2842 18.5905 16.5905 18.2842 16.7822 17.9079C17 17.4805 17 16.9215 17 15.8036V7M1 7V6.2002C1 5.08009 1 4.51962 1.21799 4.0918C1.40973 3.71547 1.71547 3.40973 2.0918 3.21799C2.51962 3 3.08009 3 4.2002 3H5M17 7V6.19691C17 5.07899 17 4.5192 16.7822 4.0918C16.5905 3.71547 16.2842 3.40973 15.9079 3.21799C15.4801 3 14.9203 3 13.8002 3H13M5 3H13M5 3V1M13 3V1M11 15L9.00001 13M9.00001 13L7 11M9.00001 13L11 11M9.00001 13L7 15" stroke="black" stroke-width="2" stroke-linecap="round" stroke-linejoin="round"/>
</svg>
